<?xml version="1.0" standalone="no"?>
<!DOCTYPE svg PUBLIC "-//W3C//DTD SVG 20010904//EN">
<svg version="1.0" xmlns="http://www.w3.org/2000/svg"
 width="720.000000pt" height="720.000000pt" viewBox="0 0 720.000000 720.000000"
 preserveAspectRatio="xMidYMid meet">
<metadata>
Created by potrace 1.14, written by Peter Selinger 2001-2017
</metadata>
<g transform="translate(0.000000,720.000000) scale(0.100000,-0.100000)"
fill="#000000" stroke="none">
<path d="M3473 6974 c-28 -14 -834 -820 -2887 -2887 -430 -434 -436 -440 -436
-519 0 -79 -113 37 2863 -2922 259 -257 466 -455 484 -462 42 -18 93 -18 140
1 37 15 327 304 2871 2862 221 223 414 420 428 438 34 45 43 128 19 176 -9 19
-446 462 -971 984 -524 523 -1259 1254 -1631 1626 -373 372 -694 686 -713 698
-43 25 -120 28 -167 5z"/>
</g>
</svg>
